<svg width="306" height="150" viewBox="0 0 306 150" fill="none" xmlns="http://www.w3.org/2000/svg">
<path d="M3.984 137.353V103.753H18.528C21.536 103.753 24.128 104.249 26.304 105.241C28.48 106.201 30.16 107.593 31.344 109.417C32.528 111.241 33.12 113.417 33.12 115.945C33.12 118.441 32.528 120.601 31.344 122.425C30.16 124.249 28.48 125.657 26.304 126.649C24.128 127.609 21.536 128.089 18.528 128.089H8.304L11.76 124.585V137.353H3.984ZM11.76 125.449L8.304 121.753H18.096C20.496 121.753 22.288 121.241 23.472 120.217C24.656 119.193 25.248 117.769 25.248 115.945C25.248 114.089 24.656 112.649 23.472 111.625C22.288 110.601 20.496 110.089 18.096 110.089H8.304L11.76 106.393V125.449ZM38.6715 137.353V103.753H53.2155C56.2235 103.753 58.8155 104.249 60.9915 105.241C63.1675 106.201 64.8475 107.593 66.0315 109.417C67.2155 111.241 67.8075 113.417 67.8075 115.945C67.8075 118.441 67.2155 120.601 66.0315 122.425C64.8475 124.217 63.1675 125.593 60.9915 126.553C58.8155 127.513 56.2235 127.993 53.2155 127.993H42.9915L46.4475 124.585V137.353H38.6715ZM60.0315 137.353L51.6315 125.161H59.9355L68.4315 137.353H60.0315ZM46.4475 125.449L42.9915 121.801H52.7835C55.1835 121.801 56.9755 121.289 58.1595 120.265C59.3435 119.209 59.9355 117.769 59.9355 115.945C59.9355 114.089 59.3435 112.649 58.1595 111.625C56.9755 110.601 55.1835 110.089 52.7835 110.089H42.9915L46.4475 106.393V125.449ZM90.2884 137.929C87.6324 137.929 85.1684 137.497 82.8964 136.633C80.6564 135.769 78.7044 134.553 77.0404 132.985C75.4084 131.417 74.1284 129.577 73.2004 127.465C72.3044 125.353 71.8564 123.049 71.8564 120.553C71.8564 118.057 72.3044 115.753 73.2004 113.641C74.1284 111.529 75.4244 109.689 77.0884 108.121C78.7524 106.553 80.7044 105.337 82.9444 104.473C85.1844 103.609 87.6164 103.177 90.2404 103.177C92.8964 103.177 95.3284 103.609 97.5364 104.473C99.7764 105.337 101.712 106.553 103.344 108.121C105.008 109.689 106.304 111.529 107.232 113.641C108.16 115.721 108.624 118.025 108.624 120.553C108.624 123.049 108.16 125.369 107.232 127.513C106.304 129.625 105.008 131.465 103.344 133.033C101.712 134.569 99.7764 135.769 97.5364 136.633C95.3284 137.497 92.9124 137.929 90.2884 137.929ZM90.2404 131.305C91.7444 131.305 93.1204 131.049 94.3684 130.537C95.6484 130.025 96.7684 129.289 97.7284 128.329C98.6884 127.369 99.4244 126.233 99.9364 124.921C100.48 123.609 100.752 122.153 100.752 120.553C100.752 118.953 100.48 117.497 99.9364 116.185C99.4244 114.873 98.6884 113.737 97.7284 112.777C96.8004 111.817 95.6964 111.081 94.4164 110.569C93.1364 110.057 91.7444 109.801 90.2404 109.801C88.7364 109.801 87.3444 110.057 86.0644 110.569C84.8164 111.081 83.7124 111.817 82.7524 112.777C81.7924 113.737 81.0404 114.873 80.4964 116.185C79.9844 117.497 79.7284 118.953 79.7284 120.553C79.7284 122.121 79.9844 123.577 80.4964 124.921C81.0404 126.233 81.7764 127.369 82.7044 128.329C83.6644 129.289 84.7844 130.025 86.0644 130.537C87.3444 131.049 88.7364 131.305 90.2404 131.305ZM130.74 137.929C128.116 137.929 125.668 137.497 123.396 136.633C121.156 135.769 119.204 134.553 117.54 132.985C115.908 131.417 114.628 129.577 113.7 127.465C112.804 125.353 112.356 123.049 112.356 120.553C112.356 118.057 112.804 115.753 113.7 113.641C114.628 111.529 115.924 109.689 117.588 108.121C119.252 106.553 121.204 105.337 123.444 104.473C125.684 103.609 128.116 103.177 130.74 103.177C133.396 103.177 135.828 103.609 138.036 104.473C140.276 105.337 142.212 106.553 143.844 108.121C145.508 109.657 146.804 111.481 147.732 113.593C148.66 115.705 149.124 118.025 149.124 120.553C149.124 123.049 148.66 125.369 147.732 127.513C146.804 129.625 145.508 131.465 143.844 133.033C142.212 134.569 140.276 135.769 138.036 136.633C135.828 137.497 133.396 137.929 130.74 137.929ZM141.732 145.081C140.42 145.081 139.172 144.937 137.988 144.649C136.836 144.361 135.684 143.897 134.532 143.257C133.412 142.617 132.228 141.753 130.98 140.665C129.764 139.577 128.436 138.233 126.996 136.633L135.156 134.569C136.02 135.753 136.82 136.697 137.556 137.401C138.292 138.105 138.996 138.601 139.668 138.889C140.372 139.177 141.108 139.321 141.876 139.321C143.924 139.321 145.748 138.489 147.348 136.825L150.804 140.953C148.532 143.705 145.508 145.081 141.732 145.081ZM130.74 131.305C132.244 131.305 133.62 131.049 134.868 130.537C136.148 130.025 137.268 129.289 138.228 128.329C139.188 127.369 139.924 126.233 140.436 124.921C140.98 123.577 141.252 122.121 141.252 120.553C141.252 118.953 140.98 117.497 140.436 116.185C139.924 114.873 139.188 113.737 138.228 112.777C137.268 111.817 136.148 111.081 134.868 110.569C133.62 110.057 132.244 109.801 130.74 109.801C129.236 109.801 127.844 110.057 126.564 110.569C125.284 111.081 124.164 111.817 123.204 112.777C122.276 113.737 121.54 114.873 120.996 116.185C120.484 117.497 120.228 118.953 120.228 120.553C120.228 122.121 120.484 123.577 120.996 124.921C121.54 126.233 122.276 127.369 123.204 128.329C124.164 129.289 125.284 130.025 126.564 130.537C127.844 131.049 129.236 131.305 130.74 131.305ZM169.896 137.929C165.128 137.929 161.4 136.601 158.712 133.945C156.024 131.289 154.68 127.497 154.68 122.569V103.753H162.456V122.281C162.456 125.481 163.112 127.785 164.424 129.193C165.736 130.601 167.576 131.305 169.944 131.305C172.312 131.305 174.152 130.601 175.464 129.193C176.776 127.785 177.432 125.481 177.432 122.281V103.753H185.112V122.569C185.112 127.497 183.768 131.289 181.08 133.945C178.392 136.601 174.664 137.929 169.896 137.929ZM192.797 137.353V103.753H200.573V137.353H192.797ZM208.547 137.353V103.753H216.323V131.017H233.171V137.353H208.547ZM233.287 137.353L248.263 103.753H255.943L270.967 137.353H262.807L250.519 107.689H253.591L241.255 137.353H233.287ZM240.775 130.153L242.839 124.249H260.119L262.231 130.153H240.775ZM290.064 137.929C287.472 137.929 285.056 137.513 282.816 136.681C280.608 135.817 278.688 134.601 277.056 133.033C275.424 131.465 274.144 129.625 273.216 127.513C272.32 125.401 271.872 123.081 271.872 120.553C271.872 118.025 272.32 115.705 273.216 113.593C274.144 111.481 275.424 109.641 277.056 108.073C278.72 106.505 280.656 105.305 282.864 104.473C285.072 103.609 287.488 103.177 290.112 103.177C293.024 103.177 295.648 103.689 297.984 104.713C300.352 105.705 302.336 107.177 303.936 109.129L298.944 113.737C297.792 112.425 296.512 111.449 295.104 110.809C293.696 110.137 292.16 109.801 290.496 109.801C288.928 109.801 287.488 110.057 286.176 110.569C284.864 111.081 283.728 111.817 282.768 112.777C281.808 113.737 281.056 114.873 280.512 116.185C280 117.497 279.744 118.953 279.744 120.553C279.744 122.153 280 123.609 280.512 124.921C281.056 126.233 281.808 127.369 282.768 128.329C283.728 129.289 284.864 130.025 286.176 130.537C287.488 131.049 288.928 131.305 290.496 131.305C292.16 131.305 293.696 130.985 295.104 130.345C296.512 129.673 297.792 128.665 298.944 127.321L303.936 131.929C302.336 133.881 300.352 135.369 297.984 136.393C295.648 137.417 293.008 137.929 290.064 137.929Z" fill="#157EBF"/>
<path d="M3.984 137.353H-0.0159998C-0.0159998 139.562 1.77486 141.353 3.984 141.353L3.984 137.353ZM3.984 103.753V99.7528C1.77486 99.7528 -0.0159998 101.544 -0.0159998 103.753H3.984ZM26.304 105.241L24.6448 108.88C24.6596 108.887 24.6745 108.894 24.6894 108.9L26.304 105.241ZM31.344 109.417L27.9889 111.595L27.9889 111.595L31.344 109.417ZM26.304 126.649L27.9186 130.308C27.9335 130.302 27.9484 130.295 27.9632 130.288L26.304 126.649ZM8.304 128.089L5.45613 125.28C4.32358 126.428 3.99144 128.144 4.61378 129.632C5.23612 131.12 6.69117 132.089 8.304 132.089L8.304 128.089ZM11.76 124.585H15.76C15.76 122.962 14.7795 121.5 13.278 120.884C11.7765 120.268 10.0517 120.62 8.91213 121.776L11.76 124.585ZM11.76 137.353V141.353C13.9691 141.353 15.76 139.562 15.76 137.353H11.76ZM11.76 125.449L8.8383 128.181C9.95999 129.38 11.7009 129.772 13.2285 129.169C14.7562 128.567 15.76 127.091 15.76 125.449H11.76ZM8.304 121.753V117.753C6.71054 117.753 5.26907 118.699 4.63467 120.16C4.00028 121.622 4.29398 123.321 5.3823 124.485L8.304 121.753ZM8.304 110.089L5.3823 107.357C4.29398 108.521 4.00028 110.22 4.63467 111.681C5.26907 113.143 6.71054 114.089 8.304 114.089V110.089ZM11.76 106.393H15.76C15.76 104.75 14.7562 103.275 13.2285 102.672C11.7009 102.069 9.95999 102.461 8.8383 103.661L11.76 106.393ZM7.984 137.353V103.753H-0.0159998V137.353H7.984ZM3.984 107.753H18.528V99.7528H3.984V107.753ZM18.528 107.753C21.1065 107.753 23.1058 108.179 24.6448 108.88L27.9632 101.601C25.1502 100.319 21.9655 99.7528 18.528 99.7528V107.753ZM24.6894 108.9C26.2229 109.577 27.2681 110.484 27.9889 111.595L34.6991 107.239C33.0519 104.701 30.7371 102.825 27.9186 101.581L24.6894 108.9ZM27.9889 111.595C28.6872 112.67 29.12 114.061 29.12 115.945H37.12C37.12 112.772 36.3689 109.811 34.6991 107.239L27.9889 111.595ZM29.12 115.945C29.12 117.785 28.6924 119.163 27.9889 120.247L34.6991 124.603C36.3636 122.038 37.12 119.097 37.12 115.945H29.12ZM27.9889 120.247C27.2604 121.369 26.1995 122.3 24.6448 123.009L27.9632 130.288C30.7605 129.013 33.0596 127.128 34.6991 124.603L27.9889 120.247ZM24.6894 122.989C23.1378 123.674 21.1221 124.089 18.528 124.089V132.089C21.9499 132.089 25.1182 131.544 27.9186 130.308L24.6894 122.989ZM18.528 124.089H8.304V132.089H18.528V124.089ZM11.1519 130.898L14.6079 127.394L8.91213 121.776L5.45613 125.28L11.1519 130.898ZM7.76 124.585V137.353H15.76V124.585H7.76ZM11.76 133.353H3.984V141.353H11.76V133.353ZM14.6817 122.717L11.2257 119.021L5.3823 124.485L8.8383 128.181L14.6817 122.717ZM8.304 125.753H18.096V117.753H8.304V125.753ZM18.096 125.753C20.9654 125.753 23.8767 125.155 26.0886 123.242L20.8554 117.191C20.6993 117.326 20.0266 117.753 18.096 117.753V125.753ZM26.0886 123.242C28.2999 121.33 29.248 118.718 29.248 115.945H21.248C21.248 116.82 21.0121 117.056 20.8554 117.191L26.0886 123.242ZM29.248 115.945C29.248 113.165 28.316 110.526 26.0886 108.599L20.8554 114.65C20.996 114.772 21.248 115.013 21.248 115.945H29.248ZM26.0886 108.599C23.8767 106.686 20.9654 106.089 18.096 106.089V114.089C20.0266 114.089 20.6993 114.515 20.8554 114.65L26.0886 108.599ZM18.096 106.089H8.304V114.089H18.096V106.089ZM11.2257 112.821L14.6817 109.125L8.8383 103.661L5.3823 107.357L11.2257 112.821ZM7.76 106.393V125.449H15.76V106.393H7.76ZM38.6715 137.353H34.6715C34.6715 139.562 36.4624 141.353 38.6715 141.353V137.353ZM38.6715 103.753V99.7528C36.4624 99.7528 34.6715 101.544 34.6715 103.753H38.6715ZM60.9915 105.241L59.3323 108.88C59.3471 108.887 59.362 108.894 59.3769 108.9L60.9915 105.241ZM66.0315 109.417L62.6764 111.595L62.6764 111.595L66.0315 109.417ZM66.0315 122.425L69.3688 124.63C69.3748 124.621 69.3807 124.612 69.3866 124.603L66.0315 122.425ZM60.9915 126.553L62.6061 130.212L62.6061 130.212L60.9915 126.553ZM42.9915 127.993L40.1829 125.145C39.0273 126.284 38.6748 128.009 39.2907 129.511C39.9065 131.012 41.3686 131.993 42.9915 131.993V127.993ZM46.4475 124.585H50.4475C50.4475 122.972 49.479 121.517 47.9911 120.895C46.5033 120.272 44.7873 120.604 43.6389 121.737L46.4475 124.585ZM46.4475 137.353V141.353C48.6566 141.353 50.4475 139.562 50.4475 137.353H46.4475ZM60.0315 137.353L56.7376 139.622C57.4841 140.706 58.7157 141.353 60.0315 141.353V137.353ZM51.6315 125.161V121.161C50.1453 121.161 48.7817 121.985 48.0905 123.3C47.3993 124.616 47.4944 126.206 48.3376 127.43L51.6315 125.161ZM59.9355 125.161L63.2173 122.874C62.4693 121.801 61.2437 121.161 59.9355 121.161V125.161ZM68.4315 137.353V141.353C69.9215 141.353 71.288 140.525 71.9775 139.204C72.6669 137.883 72.5651 136.288 71.7133 135.066L68.4315 137.353ZM46.4475 125.449L43.5437 128.2C44.6699 129.389 46.407 129.771 47.9282 129.165C49.4494 128.558 50.4475 127.086 50.4475 125.449H46.4475ZM42.9915 121.801V117.801C41.3933 117.801 39.9485 118.752 39.317 120.22C38.6855 121.688 38.9885 123.392 40.0877 124.552L42.9915 121.801ZM58.1595 120.265L60.7761 123.29C60.7915 123.277 60.8068 123.264 60.822 123.25L58.1595 120.265ZM42.9915 110.089L40.0698 107.357C38.9815 108.521 38.6878 110.22 39.3222 111.681C39.9566 113.143 41.398 114.089 42.9915 114.089V110.089ZM46.4475 106.393H50.4475C50.4475 104.75 49.4437 103.275 47.916 102.672C46.3884 102.069 44.6475 102.461 43.5258 103.661L46.4475 106.393ZM42.6715 137.353V103.753H34.6715V137.353H42.6715ZM38.6715 107.753H53.2155V99.7528H38.6715V107.753ZM53.2155 107.753C55.794 107.753 57.7933 108.179 59.3323 108.88L62.6507 101.601C59.8377 100.319 56.653 99.7528 53.2155 99.7528V107.753ZM59.3769 108.9C60.9104 109.577 61.9556 110.484 62.6764 111.595L69.3866 107.239C67.7394 104.701 65.4246 102.825 62.6061 101.581L59.3769 108.9ZM62.6764 111.595C63.3747 112.67 63.8075 114.061 63.8075 115.945H71.8075C71.8075 112.772 71.0564 109.811 69.3866 107.239L62.6764 111.595ZM63.8075 115.945C63.8075 117.785 63.3799 119.163 62.6764 120.247L69.3866 124.603C71.0511 122.038 71.8075 119.097 71.8075 115.945H63.8075ZM62.6942 120.22C61.9777 121.304 60.9291 122.208 59.3769 122.893L62.6061 130.212C65.4059 128.977 67.7173 127.129 69.3688 124.63L62.6942 120.22ZM59.3769 122.893C57.8253 123.578 55.8096 123.993 53.2155 123.993V131.993C56.6374 131.993 59.8057 131.448 62.6061 130.212L59.3769 122.893ZM53.2155 123.993H42.9915V131.993H53.2155V123.993ZM45.8001 130.841L49.2561 127.433L43.6389 121.737L40.1829 125.145L45.8001 130.841ZM42.4475 124.585V137.353H50.4475V124.585H42.4475ZM46.4475 133.353H38.6715V141.353H46.4475V133.353ZM63.3254 135.083L54.9254 122.891L48.3376 127.43L56.7376 139.622L63.3254 135.083ZM51.6315 129.161H59.9355V121.161H51.6315V129.161ZM56.6537 127.448L65.1497 139.64L71.7133 135.066L63.2173 122.874L56.6537 127.448ZM68.4315 133.353H60.0315V141.353H68.4315V133.353ZM49.3513 122.698L45.8953 119.05L40.0877 124.552L43.5437 128.2L49.3513 122.698ZM42.9915 125.801H52.7835V117.801H42.9915V125.801ZM52.7835 125.801C55.6529 125.801 58.5642 125.203 60.7761 123.29L55.5429 117.239C55.3868 117.374 54.7141 117.801 52.7835 117.801V125.801ZM60.822 123.25C62.9882 121.318 63.9355 118.72 63.9355 115.945H55.9355C55.9355 116.817 55.6988 117.1 55.497 117.28L60.822 123.25ZM63.9355 115.945C63.9355 113.165 63.0035 110.526 60.7761 108.599L55.5429 114.65C55.6835 114.772 55.9355 115.013 55.9355 115.945H63.9355ZM60.7761 108.599C58.5642 106.686 55.6529 106.089 52.7835 106.089V114.089C54.7141 114.089 55.3868 114.515 55.5429 114.65L60.7761 108.599ZM52.7835 106.089H42.9915V114.089H52.7835V106.089ZM45.9132 112.821L49.3692 109.125L43.5258 103.661L40.0698 107.357L45.9132 112.821ZM42.4475 106.393V125.449H50.4475V106.393H42.4475ZM82.8964 136.633L81.4569 140.365C81.4628 140.367 81.4687 140.369 81.4746 140.372L82.8964 136.633ZM77.0404 132.985L74.2691 135.869C74.2784 135.878 74.2878 135.887 74.2972 135.896L77.0404 132.985ZM73.2004 127.465L69.518 129.027C69.5247 129.043 69.5314 129.058 69.5383 129.074L73.2004 127.465ZM73.2004 113.641L69.5383 112.032C69.5314 112.047 69.5247 112.063 69.518 112.079L73.2004 113.641ZM82.9444 104.473L81.5049 100.741L81.5049 100.741L82.9444 104.473ZM97.5364 104.473L96.0788 108.198C96.0848 108.2 96.0908 108.202 96.0969 108.205L97.5364 104.473ZM103.344 108.121L100.573 111.005C100.582 111.014 100.592 111.023 100.601 111.032L103.344 108.121ZM107.232 113.641L103.57 115.25C103.573 115.257 103.576 115.264 103.579 115.271L107.232 113.641ZM107.232 127.513L110.894 129.122C110.897 129.115 110.9 129.108 110.903 129.102L107.232 127.513ZM103.344 133.033L106.086 135.946L106.088 135.944L103.344 133.033ZM97.5364 136.633L96.0969 132.901C96.0908 132.903 96.0848 132.905 96.0788 132.908L97.5364 136.633ZM94.3684 130.537L92.8828 126.823C92.8719 126.827 92.861 126.832 92.8502 126.836L94.3684 130.537ZM97.7284 128.329L94.8999 125.5L94.8999 125.5L97.7284 128.329ZM99.9364 124.921L96.2414 123.389C96.2307 123.415 96.2202 123.441 96.2101 123.467L99.9364 124.921ZM99.9364 116.185L96.2101 117.639C96.2202 117.665 96.2307 117.691 96.2414 117.717L99.9364 116.185ZM97.7284 112.777L94.8524 115.557C94.8681 115.573 94.884 115.589 94.8999 115.605L97.7284 112.777ZM94.4164 110.569L92.9308 114.283L92.9308 114.283L94.4164 110.569ZM86.0644 110.569L84.5788 106.855C84.5679 106.859 84.557 106.864 84.5462 106.868L86.0644 110.569ZM82.7524 112.777L85.5808 115.605L85.5808 115.605L82.7524 112.777ZM80.4964 116.185L76.8014 114.653C76.7907 114.679 76.7802 114.705 76.7701 114.731L80.4964 116.185ZM80.4964 124.921L76.7584 126.345C76.7722 126.381 76.7866 126.417 76.8014 126.453L80.4964 124.921ZM82.7044 128.329L79.8284 131.109C79.8441 131.125 79.86 131.141 79.8759 131.157L82.7044 128.329ZM86.0644 130.537L84.5788 134.251L84.5788 134.251L86.0644 130.537ZM90.2884 133.929C88.0731 133.929 86.0957 133.57 84.3182 132.894L81.4746 140.372C84.241 141.424 87.1916 141.929 90.2884 141.929V133.929ZM84.3359 132.901C82.5549 132.214 81.0516 131.268 79.7836 130.074L74.2972 135.896C76.3572 137.837 78.7578 139.324 81.4569 140.365L84.3359 132.901ZM79.8117 130.1C78.5646 128.902 77.584 127.498 76.8625 125.856L69.5383 129.074C70.6727 131.656 72.2522 133.931 74.2691 135.869L79.8117 130.1ZM76.8827 125.903C76.2142 124.327 75.8564 122.56 75.8564 120.553H67.8564C67.8564 123.538 68.3946 126.379 69.518 129.027L76.8827 125.903ZM75.8564 120.553C75.8564 118.546 76.2142 116.779 76.8827 115.203L69.518 112.079C68.3946 114.727 67.8564 117.568 67.8564 120.553H75.8564ZM76.8625 115.25C77.5766 113.625 78.5617 112.229 79.8316 111.032L74.3452 105.21C72.2871 107.149 70.6802 109.433 69.5383 112.032L76.8625 115.25ZM79.8316 111.032C81.0996 109.837 82.6029 108.892 84.3839 108.205L81.5049 100.741C78.8058 101.782 76.4052 103.268 74.3452 105.21L79.8316 111.032ZM84.3839 108.205C86.1237 107.534 88.0628 107.177 90.2404 107.177V99.1768C87.17 99.1768 84.2451 99.6839 81.5049 100.741L84.3839 108.205ZM90.2404 107.177C92.4573 107.177 94.3878 107.536 96.0788 108.198L98.994 100.748C96.269 99.6815 93.3354 99.1768 90.2404 99.1768V107.177ZM96.0969 108.205C97.8717 108.889 99.3473 109.827 100.573 111.005L106.116 105.236C104.077 103.278 101.681 101.784 98.9759 100.741L96.0969 108.205ZM100.601 111.032C101.871 112.229 102.856 113.625 103.57 115.25L110.894 112.032C109.753 109.433 108.146 107.149 106.088 105.21L100.601 111.032ZM103.579 115.271C104.255 116.784 104.624 118.524 104.624 120.553H112.624C112.624 117.525 112.066 114.658 110.885 112.011L103.579 115.271ZM104.624 120.553C104.624 122.54 104.258 124.315 103.561 125.924L110.903 129.102C112.063 126.422 112.624 123.557 112.624 120.553H104.624ZM103.57 125.904C102.856 127.529 101.871 128.925 100.601 130.122L106.088 135.944C108.146 134.005 109.753 131.721 110.894 129.122L103.57 125.904ZM100.603 130.12C99.374 131.277 97.8888 132.21 96.0969 132.901L98.9759 140.365C101.664 139.328 104.051 137.861 106.086 135.946L100.603 130.12ZM96.0788 132.908C94.3823 133.572 92.4668 133.929 90.2884 133.929V141.929C93.358 141.929 96.2744 141.422 98.994 140.358L96.0788 132.908ZM90.2404 135.305C92.2053 135.305 94.1044 134.969 95.8866 134.237L92.8502 126.836C92.1363 127.129 91.2835 127.305 90.2404 127.305V135.305ZM95.8539 134.251C97.6289 133.541 99.2077 132.506 100.557 131.157L94.8999 125.5C94.329 126.071 93.6678 126.509 92.8828 126.823L95.8539 134.251ZM100.557 131.157C101.923 129.791 102.957 128.182 103.663 126.375L96.2101 123.467C95.8914 124.283 95.4542 124.946 94.8999 125.5L100.557 131.157ZM103.631 126.453C104.401 124.597 104.752 122.612 104.752 120.553H96.7524C96.7524 121.693 96.5601 122.62 96.2414 123.389L103.631 126.453ZM104.752 120.553C104.752 118.493 104.401 116.508 103.631 114.653L96.2414 117.717C96.5601 118.485 96.7524 119.412 96.7524 120.553H104.752ZM103.663 114.731C102.957 112.923 101.923 111.314 100.557 109.948L94.8999 115.605C95.4542 116.159 95.8914 116.822 96.2101 117.639L103.663 114.731ZM100.604 109.997C99.2711 108.617 97.6886 107.57 95.9019 106.855L92.9308 114.283C93.7041 114.592 94.3297 115.016 94.8524 115.557L100.604 109.997ZM95.9019 106.855C94.1081 106.137 92.2068 105.801 90.2404 105.801V113.801C91.282 113.801 92.1646 113.976 92.9308 114.283L95.9019 106.855ZM90.2404 105.801C88.274 105.801 86.3726 106.137 84.5788 106.855L87.5499 114.283C88.3161 113.976 89.1988 113.801 90.2404 113.801V105.801ZM84.5462 106.868C82.8047 107.583 81.2561 108.616 79.9239 109.948L85.5808 115.605C86.1686 115.017 86.828 114.579 87.5826 114.269L84.5462 106.868ZM79.9239 109.948C78.5758 111.296 77.537 112.879 76.8014 114.653L84.1913 117.717C84.5438 116.867 85.0089 116.177 85.5808 115.605L79.9239 109.948ZM76.7701 114.731C76.0543 116.565 75.7284 118.522 75.7284 120.553H83.7284C83.7284 119.383 83.9145 118.429 84.2227 117.639L76.7701 114.731ZM75.7284 120.553C75.7284 122.563 76.0582 124.507 76.7584 126.345L84.2343 123.497C83.9106 122.647 83.7284 121.678 83.7284 120.553H75.7284ZM76.8014 126.453C77.5253 128.199 78.5297 129.765 79.8284 131.109L85.5803 125.549C85.023 124.972 84.5555 124.267 84.1913 123.389L76.8014 126.453ZM79.8759 131.157C81.225 132.506 82.8038 133.541 84.5788 134.251L87.5499 126.823C86.7649 126.509 86.1037 126.071 85.5328 125.5L79.8759 131.157ZM84.5788 134.251C86.3726 134.968 88.274 135.305 90.2404 135.305V127.305C89.1988 127.305 88.3161 127.129 87.5499 126.823L84.5788 134.251ZM123.396 136.633L121.957 140.365C121.963 140.367 121.969 140.369 121.975 140.372L123.396 136.633ZM117.54 132.985L114.769 135.869C114.778 135.878 114.788 135.887 114.797 135.896L117.54 132.985ZM113.7 127.465L110.018 129.027C110.025 129.043 110.031 129.058 110.038 129.074L113.7 127.465ZM113.7 113.641L110.038 112.032C110.031 112.047 110.025 112.063 110.018 112.079L113.7 113.641ZM123.444 104.473L122.005 100.741L122.005 100.741L123.444 104.473ZM138.036 104.473L136.579 108.198C136.585 108.2 136.591 108.202 136.597 108.205L138.036 104.473ZM143.844 108.121L141.073 111.005C141.092 111.024 141.112 111.042 141.131 111.06L143.844 108.121ZM147.732 113.593L144.07 115.202L144.07 115.202L147.732 113.593ZM147.732 127.513L151.394 129.122C151.397 129.115 151.4 129.108 151.403 129.102L147.732 127.513ZM143.844 133.033L146.586 135.946L146.588 135.944L143.844 133.033ZM138.036 136.633L136.597 132.901C136.591 132.903 136.585 132.905 136.579 132.908L138.036 136.633ZM137.988 144.649L137.018 148.529C137.026 148.531 137.035 148.533 137.043 148.535L137.988 144.649ZM134.532 143.257L132.548 146.73C132.562 146.738 132.576 146.746 132.59 146.753L134.532 143.257ZM130.98 140.665L128.313 143.646C128.326 143.657 128.339 143.669 128.352 143.68L130.98 140.665ZM126.996 136.633L126.016 132.755C124.657 133.099 123.577 134.128 123.169 135.469C122.762 136.81 123.086 138.267 124.023 139.309L126.996 136.633ZM135.156 134.569L138.388 132.211C137.425 130.892 135.758 130.291 134.176 130.691L135.156 134.569ZM137.556 137.401L140.321 134.51L137.556 137.401ZM139.668 138.889L138.093 142.565C138.113 142.574 138.133 142.583 138.154 142.591L139.668 138.889ZM147.348 136.825L150.415 134.257C149.686 133.386 148.621 132.866 147.486 132.827C146.351 132.788 145.252 133.234 144.465 134.052L147.348 136.825ZM150.804 140.953L153.889 143.499C155.116 142.013 155.109 139.863 153.871 138.385L150.804 140.953ZM134.868 130.537L133.383 126.823C133.372 126.827 133.361 126.832 133.35 126.836L134.868 130.537ZM138.228 128.329L135.4 125.5L135.4 125.5L138.228 128.329ZM140.436 124.921L136.729 123.42C136.722 123.436 136.716 123.451 136.71 123.467L140.436 124.921ZM140.436 116.185L136.71 117.639C136.72 117.665 136.731 117.691 136.741 117.717L140.436 116.185ZM138.228 112.777L135.4 115.605L135.4 115.605L138.228 112.777ZM134.868 110.569L133.35 114.269C133.361 114.274 133.372 114.278 133.383 114.283L134.868 110.569ZM126.564 110.569L125.079 106.855L125.079 106.855L126.564 110.569ZM123.204 112.777L120.376 109.948C120.36 109.964 120.344 109.98 120.328 109.997L123.204 112.777ZM120.996 116.185L117.301 114.653C117.291 114.679 117.28 114.705 117.27 114.731L120.996 116.185ZM120.996 124.921L117.258 126.345C117.272 126.381 117.287 126.417 117.301 126.453L120.996 124.921ZM123.204 128.329L120.328 131.109C120.344 131.125 120.36 131.141 120.376 131.157L123.204 128.329ZM126.564 130.537L125.079 134.251L125.079 134.251L126.564 130.537ZM130.74 133.929C128.563 133.929 126.601 133.572 124.818 132.894L121.975 140.372C124.736 141.422 127.669 141.929 130.74 141.929V133.929ZM124.836 132.901C123.055 132.214 121.552 131.268 120.284 130.074L114.797 135.896C116.857 137.837 119.258 139.324 121.957 140.365L124.836 132.901ZM120.312 130.1C119.065 128.902 118.084 127.498 117.362 125.856L110.038 129.074C111.173 131.656 112.752 133.931 114.769 135.869L120.312 130.1ZM117.383 125.903C116.714 124.327 116.356 122.56 116.356 120.553H108.356C108.356 123.538 108.895 126.379 110.018 129.027L117.383 125.903ZM116.356 120.553C116.356 118.546 116.714 116.779 117.383 115.203L110.018 112.079C108.895 114.727 108.356 117.568 108.356 120.553H116.356ZM117.362 115.25C118.077 113.625 119.062 112.229 120.332 111.032L114.845 105.21C112.787 107.149 111.18 109.433 110.038 112.032L117.362 115.25ZM120.332 111.032C121.6 109.837 123.103 108.892 124.884 108.205L122.005 100.741C119.306 101.782 116.905 103.268 114.845 105.21L120.332 111.032ZM124.884 108.205C126.624 107.534 128.563 107.177 130.74 107.177V99.1768C127.67 99.1768 124.745 99.6839 122.005 100.741L124.884 108.205ZM130.74 107.177C132.957 107.177 134.888 107.536 136.579 108.198L139.494 100.748C136.769 99.6815 133.835 99.1768 130.74 99.1768V107.177ZM136.597 108.205C138.372 108.889 139.847 109.827 141.073 111.005L146.616 105.236C144.577 103.278 142.181 101.784 139.476 100.741L136.597 108.205ZM141.131 111.06C142.383 112.216 143.359 113.584 144.07 115.202L151.394 111.984C150.249 109.377 148.634 107.098 146.557 105.182L141.131 111.06ZM144.07 115.202C144.755 116.76 145.124 118.525 145.124 120.553H153.124C153.124 117.524 152.566 114.65 151.394 111.984L144.07 115.202ZM145.124 120.553C145.124 122.54 144.758 124.315 144.061 125.924L151.403 129.102C152.563 126.422 153.124 123.557 153.124 120.553H145.124ZM144.07 125.904C143.356 127.529 142.371 128.925 141.101 130.122L146.588 135.944C148.646 134.005 150.253 131.721 151.394 129.122L144.07 125.904ZM141.103 130.12C139.874 131.277 138.389 132.21 136.597 132.901L139.476 140.365C142.164 139.328 144.551 137.861 146.586 135.946L141.103 130.12ZM136.579 132.908C134.888 133.57 132.957 133.929 130.74 133.929V141.929C133.835 141.929 136.769 141.424 139.494 140.358L136.579 132.908ZM141.732 141.081C140.715 141.081 139.786 140.969 138.934 140.762L137.043 148.535C138.559 148.904 140.126 149.081 141.732 149.081V141.081ZM138.959 140.768C138.181 140.574 137.354 140.249 136.475 139.76L132.59 146.753C134.015 147.545 135.492 148.148 137.018 148.529L138.959 140.768ZM136.517 139.784C135.68 139.306 134.711 138.61 133.609 137.65L128.352 143.68C129.746 144.895 131.145 145.928 132.548 146.73L136.517 139.784ZM133.648 137.684C132.567 136.717 131.342 135.481 129.97 133.957L124.023 139.309C125.531 140.984 126.962 142.437 128.313 143.646L133.648 137.684ZM127.977 140.511L136.137 138.447L134.176 130.691L126.016 132.755L127.977 140.511ZM131.925 136.927C132.874 138.226 133.828 139.37 134.791 140.291L140.321 134.51C139.812 134.024 139.167 133.279 138.388 132.211L131.925 136.927ZM134.791 140.291C135.748 141.206 136.844 142.03 138.093 142.565L141.244 135.212C141.148 135.171 140.837 135.004 140.321 134.51L134.791 140.291ZM138.154 142.591C139.343 143.078 140.594 143.321 141.876 143.321V135.321C141.623 135.321 141.401 135.276 141.183 135.187L138.154 142.591ZM141.876 143.321C145.156 143.321 147.983 141.936 150.232 139.597L144.465 134.052C143.514 135.042 142.693 135.321 141.876 135.321V143.321ZM144.281 139.393L147.737 143.521L153.871 138.385L150.415 134.257L144.281 139.393ZM147.72 138.406C146.257 140.178 144.394 141.081 141.732 141.081V149.081C146.622 149.081 150.808 147.231 153.889 143.499L147.72 138.406ZM130.74 135.305C132.705 135.305 134.604 134.969 136.387 134.237L133.35 126.836C132.636 127.129 131.783 127.305 130.74 127.305V135.305ZM136.354 134.251C138.129 133.541 139.708 132.506 141.057 131.157L135.4 125.5C134.829 126.071 134.168 126.509 133.383 126.823L136.354 134.251ZM141.057 131.157C142.423 129.791 143.457 128.182 144.163 126.375L136.71 123.467C136.391 124.283 135.954 124.946 135.4 125.5L141.057 131.157ZM144.144 126.422C144.896 124.563 145.252 122.593 145.252 120.553H137.252C137.252 121.649 137.064 122.59 136.729 123.42L144.144 126.422ZM145.252 120.553C145.252 118.493 144.901 116.508 144.131 114.653L136.741 117.717C137.06 118.485 137.252 119.412 137.252 120.553H145.252ZM144.163 114.731C143.457 112.923 142.423 111.314 141.057 109.948L135.4 115.605C135.954 116.159 136.391 116.822 136.71 117.639L144.163 114.731ZM141.057 109.948C139.708 108.599 138.129 107.565 136.354 106.855L133.383 114.283C134.168 114.597 134.829 115.034 135.4 115.605L141.057 109.948ZM136.387 106.868C134.604 106.137 132.705 105.801 130.74 105.801V113.801C131.783 113.801 132.636 113.977 133.35 114.269L136.387 106.868ZM130.74 105.801C128.774 105.801 126.873 106.137 125.079 106.855L128.05 114.283C128.816 113.976 129.699 113.801 130.74 113.801V105.801ZM125.079 106.855C123.304 107.565 121.725 108.599 120.376 109.948L126.033 115.605C126.604 115.034 127.265 114.597 128.05 114.283L125.079 106.855ZM120.328 109.997C119.03 111.34 118.025 112.907 117.301 114.653L124.691 117.717C125.055 116.839 125.523 116.133 126.08 115.557L120.328 109.997ZM117.27 114.731C116.554 116.565 116.228 118.522 116.228 120.553H124.228C124.228 119.383 124.414 118.429 124.723 117.639L117.27 114.731ZM116.228 120.553C116.228 122.563 116.558 124.507 117.258 126.345L124.734 123.497C124.411 122.647 124.228 121.678 124.228 120.553H116.228ZM117.301 126.453C118.025 128.199 119.03 129.765 120.328 131.109L126.08 125.549C125.523 124.972 125.055 124.267 124.691 123.389L117.301 126.453ZM120.376 131.157C121.725 132.506 123.304 133.541 125.079 134.251L128.05 126.823C127.265 126.509 126.604 126.071 126.033 125.5L120.376 131.157ZM125.079 134.251C126.873 134.968 128.774 135.305 130.74 135.305V127.305C129.699 127.305 128.816 127.129 128.05 126.823L125.079 134.251ZM158.712 133.945L161.524 131.099L161.524 131.099L158.712 133.945ZM154.68 103.753V99.7528C152.471 99.7528 150.68 101.544 150.68 103.753H154.68ZM162.456 103.753H166.456C166.456 101.544 164.666 99.7528 162.456 99.7528V103.753ZM164.424 129.193L161.498 131.92L161.498 131.92L164.424 129.193ZM175.464 129.193L178.391 131.92L178.391 131.92L175.464 129.193ZM177.432 103.753V99.7528C175.223 99.7528 173.432 101.544 173.432 103.753H177.432ZM185.112 103.753H189.112C189.112 101.544 187.322 99.7528 185.112 99.7528V103.753ZM181.08 133.945L183.892 136.79L183.892 136.79L181.08 133.945ZM169.896 133.929C165.891 133.929 163.28 132.834 161.524 131.099L155.901 136.79C159.521 140.367 164.365 141.929 169.896 141.929V133.929ZM161.524 131.099C159.808 129.404 158.68 126.767 158.68 122.569H150.68C150.68 128.227 152.241 133.174 155.901 136.79L161.524 131.099ZM158.68 122.569V103.753H150.68V122.569H158.68ZM154.68 107.753H162.456V99.7528H154.68V107.753ZM158.456 103.753V122.281H166.456V103.753H158.456ZM158.456 122.281C158.456 125.864 159.162 129.413 161.498 131.92L167.351 126.466C167.063 126.156 166.456 125.097 166.456 122.281H158.456ZM161.498 131.92C163.735 134.321 166.741 135.305 169.944 135.305V127.305C168.412 127.305 167.737 126.881 167.351 126.466L161.498 131.92ZM169.944 135.305C173.148 135.305 176.153 134.321 178.391 131.92L172.538 126.466C172.151 126.881 171.477 127.305 169.944 127.305V135.305ZM178.391 131.92C180.727 129.413 181.432 125.864 181.432 122.281H173.432C173.432 125.097 172.826 126.156 172.538 126.466L178.391 131.92ZM181.432 122.281V103.753H173.432V122.281H181.432ZM177.432 107.753H185.112V99.7528H177.432V107.753ZM181.112 103.753V122.569H189.112V103.753H181.112ZM181.112 122.569C181.112 126.767 179.985 129.404 178.269 131.099L183.892 136.79C187.552 133.174 189.112 128.227 189.112 122.569H181.112ZM178.269 131.099C176.513 132.834 173.901 133.929 169.896 133.929V141.929C175.427 141.929 180.272 140.367 183.892 136.79L178.269 131.099ZM192.797 137.353H188.797C188.797 139.562 190.587 141.353 192.797 141.353V137.353ZM192.797 103.753V99.7528C190.587 99.7528 188.797 101.544 188.797 103.753H192.797ZM200.573 103.753H204.573C204.573 101.544 202.782 99.7528 200.573 99.7528V103.753ZM200.573 137.353V141.353C202.782 141.353 204.573 139.562 204.573 137.353H200.573ZM196.797 137.353V103.753H188.797V137.353H196.797ZM192.797 107.753H200.573V99.7528H192.797V107.753ZM196.573 103.753V137.353H204.573V103.753H196.573ZM200.573 133.353H192.797V141.353H200.573V133.353ZM208.547 137.353H204.547C204.547 139.562 206.337 141.353 208.547 141.353V137.353ZM208.547 103.753V99.7528C206.337 99.7528 204.547 101.544 204.547 103.753H208.547ZM216.323 103.753H220.323C220.323 101.544 218.532 99.7528 216.323 99.7528V103.753ZM216.323 131.017H212.323C212.323 133.226 214.113 135.017 216.323 135.017V131.017ZM233.171 131.017H237.171C237.171 128.808 235.38 127.017 233.171 127.017V131.017ZM233.171 137.353V141.353C235.38 141.353 237.171 139.562 237.171 137.353H233.171ZM212.547 137.353V103.753H204.547V137.353H212.547ZM208.547 107.753H216.323V99.7528H208.547V107.753ZM212.323 103.753V131.017H220.323V103.753H212.323ZM216.323 135.017H233.171V127.017H216.323V135.017ZM229.171 131.017V137.353H237.171V131.017H229.171ZM233.171 133.353H208.547V141.353H233.171V133.353ZM233.287 137.353L229.633 135.724C229.082 136.962 229.194 138.394 229.932 139.531C230.669 140.667 231.932 141.353 233.287 141.353V137.353ZM248.263 103.753V99.7528C246.684 99.7528 245.252 100.682 244.609 102.124L248.263 103.753ZM255.943 103.753L259.594 102.12C258.95 100.68 257.52 99.7528 255.943 99.7528V103.753ZM270.967 137.353V141.353C272.322 141.353 273.586 140.666 274.323 139.529C275.061 138.391 275.172 136.958 274.618 135.72L270.967 137.353ZM262.807 137.353L259.111 138.884C259.73 140.378 261.189 141.353 262.807 141.353V137.353ZM250.519 107.689V103.689C249.183 103.689 247.935 104.356 247.193 105.467C246.451 106.577 246.312 107.985 246.823 109.22L250.519 107.689ZM253.591 107.689L257.284 109.225C257.797 107.99 257.66 106.581 256.918 105.469C256.176 104.357 254.928 103.689 253.591 103.689V107.689ZM241.255 137.353V141.353C242.871 141.353 244.328 140.381 244.948 138.889L241.255 137.353ZM240.775 130.153L236.999 128.833C236.571 130.056 236.763 131.411 237.513 132.468C238.263 133.525 239.479 134.153 240.775 134.153V130.153ZM242.839 124.249V120.249C241.138 120.249 239.624 121.324 239.063 122.929L242.839 124.249ZM260.119 124.249L263.885 122.901C263.316 121.311 261.808 120.249 260.119 120.249V124.249ZM262.231 130.153V134.153C263.532 134.153 264.752 133.52 265.501 132.456C266.25 131.392 266.435 130.031 265.997 128.805L262.231 130.153ZM236.94 138.981L251.916 105.381L244.609 102.124L229.633 135.724L236.94 138.981ZM248.263 107.753H255.943V99.7528H248.263V107.753ZM252.291 105.386L267.315 138.986L274.618 135.72L259.594 102.12L252.291 105.386ZM270.967 133.353H262.807V141.353H270.967V133.353ZM266.502 135.822L254.214 106.158L246.823 109.22L259.111 138.884L266.502 135.822ZM250.519 111.689H253.591V103.689H250.519V111.689ZM249.897 106.153L237.561 135.817L244.948 138.889L257.284 109.225L249.897 106.153ZM241.255 133.353H233.287V141.353H241.255V133.353ZM244.551 131.473L246.615 125.569L239.063 122.929L236.999 128.833L244.551 131.473ZM242.839 128.249H260.119V120.249H242.839V128.249ZM256.352 125.596L258.464 131.5L265.997 128.805L263.885 122.901L256.352 125.596ZM262.231 126.153H240.775V134.153H262.231V126.153ZM282.816 136.681L281.358 140.406C281.38 140.414 281.402 140.422 281.423 140.43L282.816 136.681ZM277.056 133.033L274.285 135.917L274.285 135.917L277.056 133.033ZM273.216 127.513L269.534 129.075C269.54 129.091 269.547 129.106 269.554 129.122L273.216 127.513ZM273.216 113.593L269.554 111.984C269.547 111.999 269.54 112.015 269.534 112.031L273.216 113.593ZM277.056 108.073L274.313 105.162C274.303 105.17 274.294 105.179 274.285 105.188L277.056 108.073ZM282.864 104.473L284.274 108.216C284.29 108.21 284.306 108.204 284.322 108.198L282.864 104.473ZM297.984 104.713L296.378 108.376C296.398 108.385 296.418 108.394 296.438 108.402L297.984 104.713ZM303.936 109.129L306.649 112.068C308.205 110.632 308.372 108.231 307.03 106.593L303.936 109.129ZM298.944 113.737L295.938 116.376C296.65 117.186 297.658 117.675 298.734 117.731C299.811 117.788 300.865 117.407 301.657 116.676L298.944 113.737ZM295.104 110.809L293.381 114.419C293.404 114.429 293.426 114.44 293.449 114.45L295.104 110.809ZM282.768 112.777L285.596 115.605L285.596 115.605L282.768 112.777ZM280.512 116.185L276.817 114.653C276.806 114.679 276.796 114.705 276.786 114.731L280.512 116.185ZM280.512 124.921L276.786 126.375C276.796 126.401 276.806 126.427 276.817 126.453L280.512 124.921ZM282.768 128.329L279.94 131.157L279.94 131.157L282.768 128.329ZM295.104 130.345L296.759 133.986C296.782 133.976 296.804 133.965 296.827 133.955L295.104 130.345ZM298.944 127.321L301.657 124.382C300.859 123.645 299.795 123.264 298.711 123.328C297.626 123.391 296.614 123.893 295.907 124.718L298.944 127.321ZM303.936 131.929L307.03 134.464C308.372 132.827 308.205 130.426 306.649 128.99L303.936 131.929ZM297.984 136.393L296.396 132.721C296.39 132.724 296.384 132.727 296.378 132.729L297.984 136.393ZM290.064 133.929C287.907 133.929 285.967 133.584 284.209 132.931L281.423 140.43C284.145 141.442 287.037 141.929 290.064 141.929V133.929ZM284.274 132.956C282.531 132.274 281.063 131.335 279.827 130.148L274.285 135.917C276.313 137.866 278.685 139.36 281.358 140.406L284.274 132.956ZM279.827 130.148C278.58 128.95 277.6 127.546 276.878 125.904L269.554 129.122C270.688 131.704 272.268 133.979 274.285 135.917L279.827 130.148ZM276.898 125.951C276.232 124.381 275.872 122.599 275.872 120.553H267.872C267.872 123.563 268.408 126.421 269.534 129.075L276.898 125.951ZM275.872 120.553C275.872 118.507 276.232 116.725 276.898 115.155L269.534 112.031C268.408 114.685 267.872 117.543 267.872 120.553H275.872ZM276.878 115.202C277.6 113.56 278.58 112.155 279.827 110.957L274.285 105.188C272.268 107.126 270.688 109.402 269.554 111.984L276.878 115.202ZM279.799 110.984C281.066 109.79 282.545 108.867 284.274 108.216L281.454 100.73C278.767 101.742 276.374 103.219 274.313 105.162L279.799 110.984ZM284.322 108.198C286.018 107.534 287.934 107.177 290.112 107.177V99.1768C287.042 99.1768 284.126 99.6836 281.406 100.748L284.322 108.198ZM290.112 107.177C292.549 107.177 294.615 107.604 296.378 108.376L299.59 101.049C296.681 99.774 293.499 99.1768 290.112 99.1768V107.177ZM296.438 108.402C298.215 109.146 299.664 110.227 300.842 111.664L307.03 106.593C305.008 104.127 302.489 102.263 299.53 101.023L296.438 108.402ZM301.223 106.19L296.231 110.798L301.657 116.676L306.649 112.068L301.223 106.19ZM301.95 111.098C300.472 109.415 298.746 108.07 296.759 107.167L293.449 114.45C294.278 114.827 295.112 115.435 295.938 116.376L301.95 111.098ZM296.827 107.199C294.845 106.253 292.716 105.801 290.496 105.801V113.801C291.604 113.801 292.547 114.02 293.381 114.419L296.827 107.199ZM290.496 105.801C288.487 105.801 286.547 106.13 284.722 106.842L287.63 114.295C288.429 113.983 289.369 113.801 290.496 113.801V105.801ZM284.722 106.842C282.914 107.548 281.305 108.583 279.94 109.948L285.596 115.605C286.151 115.051 286.814 114.614 287.63 114.295L284.722 106.842ZM279.94 109.948C278.591 111.296 277.553 112.879 276.817 114.653L284.207 117.717C284.559 116.867 285.025 116.177 285.596 115.605L279.94 109.948ZM276.786 114.731C276.07 116.565 275.744 118.522 275.744 120.553H283.744C283.744 119.383 283.93 118.429 284.238 117.639L276.786 114.731ZM275.744 120.553C275.744 122.583 276.07 124.541 276.786 126.375L284.238 123.467C283.93 122.677 283.744 121.722 283.744 120.553H275.744ZM276.817 126.453C277.553 128.227 278.591 129.809 279.94 131.157L285.596 125.5C285.025 124.928 284.559 124.239 284.207 123.389L276.817 126.453ZM279.94 131.157C281.305 132.523 282.914 133.558 284.722 134.263L287.63 126.81C286.814 126.492 286.151 126.055 285.596 125.5L279.94 131.157ZM284.722 134.263C286.547 134.975 288.487 135.305 290.496 135.305V127.305C289.369 127.305 288.429 127.122 287.63 126.81L284.722 134.263ZM290.496 135.305C292.687 135.305 294.793 134.88 296.759 133.986L293.449 126.703C292.599 127.089 291.633 127.305 290.496 127.305V135.305ZM296.827 133.955C298.802 133.012 300.515 131.635 301.981 129.924L295.907 124.718C295.069 125.695 294.222 126.333 293.381 126.735L296.827 133.955ZM296.231 130.26L301.223 134.868L306.649 128.99L301.657 124.382L296.231 130.26ZM300.842 129.393C299.656 130.841 298.193 131.945 296.396 132.721L299.572 140.064C302.511 138.793 305.016 136.921 307.03 134.464L300.842 129.393ZM296.378 132.729C294.621 133.5 292.54 133.929 290.064 133.929V141.929C293.476 141.929 296.675 141.334 299.59 140.056L296.378 132.729Z" fill="white"/>
<path d="M135.713 72.5468L99.626 35.7715C95.9017 31.9761 97.2005 25.6178 102.115 23.587L139.016 8.33814C144 6.27856 149.464 9.99491 149.38 15.3871L148.565 67.4113C148.461 74.0698 140.377 77.2999 135.713 72.5468Z" fill="#F28705" stroke="white" stroke-width="5"/>
<path d="M151.979 66.3516L151.992 14.8281C151.994 9.51062 157.375 5.8834 162.305 7.8772L199.32 22.8484C204.319 24.8705 205.614 31.3502 201.776 35.1387L164.748 71.691C160.009 76.3693 151.977 73.0109 151.979 66.3516Z" fill="#F2A81D" stroke="white" stroke-width="5"/>
<path d="M165.007 77.7828L201.424 41.3341C205.182 37.5725 211.553 38.8083 213.632 43.7024L229.245 80.4513C231.354 85.4147 227.692 90.915 222.299 90.8839L170.269 90.5836C163.61 90.5452 160.3 82.4937 165.007 77.7828Z" fill="#F3B91A" stroke="white" stroke-width="5"/>
<path d="M130.35 91.2813L78.8266 91.2987C73.5091 91.3005 69.8787 85.9214 71.8696 80.9907L86.8186 43.9667C88.8377 38.9661 95.3166 37.667 99.1075 41.5026L135.682 78.5093C140.363 83.2457 137.009 91.2791 130.35 91.2813Z" fill="#F2441D" stroke="white" stroke-width="5"/>
</svg>
